@startuml
class "SString" as C_0002203485581356694267
class C_0002203485581356694267 {
+SString() : void
+SString(unsigned int size) : void
+SString(const SString & string) : void
+SString(const char * format) : void
+~SString() : void
..
+operator=(const SString & string) : const SString &
..
+operator!=(const SString & string) const : bool
+operator!=(const char * string) const : bool
+operator+=(const SString & string) : const SString &
+operator+=(const char * string) : const SString &
+operator=(const char * string) : const SString &
+operator==(const SString & string) const : bool
+operator==(const char * string) const : bool
..
-Alloc(unsigned int required_memory) : void
+Clear() : void
+Create(const char * format) : const SString &
+Cut(unsigned int begin, unsigned int end = 0) : bool
+Find(const char * string) const : unsigned int
+GetCapacity() const : unsigned int
+GetString() const : const char *
+Length() const : unsigned int
+SubString(unsigned int start, unsigned int end, SString & buffer) const : unsigned int
+Substitute(const char * src, const char * dst) : unsigned int
+Trim() : void
__
-size : unsigned int
-str : char *
}
class "Module" as C_0000399112451206826007
class C_0000399112451206826007 {
+Module() : void
+Module(bool startActive) : void
..
+Awake(pugi::xml_node &) : bool
+CleanUp() : bool
+Disable() : void
+DrawImGui() : void
+Enable() : void
+Init() : void
+LoadState(pugi::xml_node node) : bool
+OnGuiMouseClickEvent(GuiControl * control) : bool
+PostUpdate() : bool
+PreUpdate() : bool
+SaveState(pugi::xml_node node) : bool
+Start() : bool
+Update(float dt) : bool
__
+active : bool
+name : SString
}
class "ListItem<tdata>" as C_0001906342285328040906
class C_0001906342285328040906 {
__
}
class "List<tdata>" as C_0001696772670596304948
class C_0001696772670596304948 {
__
}
class "PerfTimer" as C_0000380169775090805138
class C_0000380169775090805138 {
+PerfTimer() : void
..
+ReadMs() const : double
+ReadTicks() const : uint64_t
+Start() : void
__
{static} -frequency : uint64_t
-startTime : uint64_t
}
class "Timer" as C_0002067590222564760620
class C_0002067590222564760620 {
+Timer() : void
+Timer(uint32_t startTime) : void
..
+ReadMSec() const : float
+ReadSec() const : uint32_t
+Start() : void
__
-startTime : uint32_t
}
class "Point<TYPE>" as C_0001000489781057793444
class C_0001000489781057793444 {
__
}
enum "EventWindow" as C_0000385363721452268759
enum C_0000385363721452268759 {
WE_QUIT
WE_HIDE
WE_SHOW
WE_COUNT
}
enum "KeyState" as C_0000924491435641011598
enum C_0000924491435641011598 {
KEY_IDLE
KEY_DOWN
KEY_REPEAT
KEY_UP
}
class "Input" as C_0001973336118957464567
class C_0001973336118957464567 {
+Input() : void
+Input(bool startEnabled) : void
+~Input() : void
..
+Awake(pugi::xml_node & conf) : bool
+CleanUp() : bool
+GetKey(int id) const : KeyState
+GetMouseButtonDown(int id) const : KeyState
+GetMouseMotion(int & x, int & y) : void
+GetMousePosition(int & x, int & y) : void
+GetMouseX() const : int
+GetMouseY() const : int
+GetWindowEvent(EventWindow ev) : bool
+PreUpdate() : bool
+Start() : bool
__
-keyboard : KeyState *
-mouseButtons : KeyState[5]
-mouseMotionX : int
-mouseMotionY : int
-mouseX : int
-mouseY : int
-windowEvents : bool[3]
}
enum "EntityType" as C_0000040480378375424615
enum C_0000040480378375424615 {
PLAYER
UNKNOWN
}
enum "EntityState" as C_0000880475517060217217
enum C_0000880475517060217217 {
NONE
IDLE
}
class "Point<int>" as C_0001700573609937743778
class C_0001700573609937743778 {
__
}
class "Entity" as C_0001058145269966182203
class C_0001058145269966182203 {
+Entity(EntityType type) : void
..
+Awake() : bool
+CleanUp() : bool
+Disable() : void
+DrawImGui() : void
+Enable() : void
+EndCollision(PhysBody * physA, PhysBody * physB) : void
+LoadState(pugi::xml_node &) : bool
+OnCollision(PhysBody * physA, PhysBody * physB) : void
+OnRaycastHit(b2Fixture * fixture, const b2Vec2 & point, const b2Vec2 & normal, float32 fraction) : void
+SaveState(pugi::xml_node & node) : bool
+Start() : bool
+Update(float dt) : bool
__
+active : bool
+entityDebugDraw : bool
+name : SString
+parameters : pugi::xml_node
+position : iPoint
+renderable : bool
+state : EntityState
+type : EntityType
}
class "List<Entity *>" as C_0000673652577393702412
class C_0000673652577393702412 {
__
}
class "EntityManager" as C_0001001317298509836136
class C_0001001317298509836136 {
+EntityManager() : void
+EntityManager(bool startEnabled) : void
+~EntityManager() : void
..
+AddEntity(Entity * entity) : void
+Awake(pugi::xml_node & conf) : bool
+CleanUp() : bool
+CreateEntity(EntityType type) : Entity *
+DestroyEntity(Entity * entity) : void
+DrawImGui() : void
+LoadState(pugi::xml_node node) : bool
+SaveState(pugi::xml_node node) : bool
+Start() : bool
+Update(float dt) : bool
__
+entities : List<Entity *>
}
class "List<Module *>" as C_0000466625331374099894
class C_0000466625331374099894 {
__
}
class "App" as C_0002251334596585589981
class C_0002251334596585589981 {
+App(int argc, char ** args) : void
+~App() : void
..
+AddModule(Module * module) : void
+Awake() : bool
+CleanUp() : bool
-DoUpdate() : bool
-FinishUpdate() : void
+GetArgc() const : int
+GetArgv(int index) const : const char *
+GetAverageFps() const : const uint32_t
+GetDt() const : const float
+GetFrameCount() const : const uint64_t
+GetFramesPerSecond() const : const uint32_t
+GetOrganization() const : const char *
+GetSecondsSinceStartup() const : const float
+GetTitle() const : const char *
-LoadConfig() : bool
-LoadFromFile() : bool
+LoadRequest() : bool
-PostUpdate() : bool
-PreUpdate() : bool
-PrepareUpdate() : void
-SaveFromFile() : bool
+SaveRequest() : bool
+Start() : bool
+Update() : bool
__
-argc : int
-args : char **
+audio : Audio *
-averageFps : float
-configFile : pugi::xml_document
-configNode : pugi::xml_node
+debugUI : DebugUI *
-dt : float
+entityManager : EntityManager *
+fade : FadeToBlack *
+finalScene : FinalScene *
-frameCount : uint64_t
-frameTime : PerfTimer
-frames : uint
-framesPerSecond : uint32_t
-gameTitle : SString
+guiManager : GuiManager *
+input : Input *
-lastSecFrameCount : uint32_t
-lastSecFrameTime : PerfTimer
+lighting : Lighting *
-loadRequest : bool
+mainMenu : MainMenu *
+map : Map *
-maxFps : float
-maxFrameDuration : float
-modules : List<Module *>
-organization : SString
+physics : Physics *
+render : Render *
-saveRequest : bool
+scene : Scene *
-secondsSinceStartup : uint32_t
-startupTime : Timer
+tex : Textures *
+win : Window *
}
class "Animation" as C_0001495296779634455327
class C_0001495296779634455327 {
+GetCurrentFrame() const : const SDL_Rect &
+GetCurrentFrameCount() const : float
+GetLoopCount() const : int
+GetPingPongCount() const : int
+HasFinished() : bool
+PushBack(const SDL_Rect & rect) : void
+Reset() : void
+ResetLoopCount() : void
+Update(float dt) : void
__
+currentFrame : float
+flip : bool
+frames : SDL_Rect[30]
+loop : bool
-loopCount : int
+name : SString
+pingpong : bool
-pingpongCount : int
-pingpongDirection : int
+speed : float
+texture : SDL_Texture *
+totalFrames : int
}
class "Render" as C_0001099816755252582957
class C_0001099816755252582957 {
+Render() : void
+Render(bool startEnabled) : void
+~Render() : void
..
+Awake(pugi::xml_node & conf) : bool
+CleanUp() : bool
+DrawCircle(int x1, int y1, int redius, Uint8 r, Uint8 g, Uint8 b, Uint8 a = 255, bool useCamera = true) const : bool
+DrawImGui() : void
+DrawLine(int x1, int y1, int x2, int y2, Uint8 r, Uint8 g, Uint8 b, Uint8 a = 255, bool useCamera = true) const : bool
+DrawRectangle(const SDL_Rect & rect, Uint8 r, Uint8 g, Uint8 b, Uint8 a = 255, bool filled = true, bool useCamera = true) const : bool
+DrawText(const char * text, int posX, int posY, int w, int h) : bool
+DrawTexture(SDL_Texture * texture, int x, int y, const SDL_Rect * section = 0, float speed = 1.0f, double angle = 0, SDL_RendererFlip flip = SDL_FLIP_NONE, int pivotX = 2147483647, int pivotY = 2147483647) const : bool
+LoadState(pugi::xml_node node) : bool
+PostUpdate() : bool
+PreUpdate() : bool
+ResetViewPort() : void
+SaveState(pugi::xml_node node) : bool
+SetBackgroundColor(SDL_Color color) : void
+SetViewPort(const SDL_Rect & rect) : void
+Start() : bool
+Update(float dt) : bool
+cameraInterpolation(Entity * target, float lerpSpeed, float dt, iPoint offset = = { 0,0 }) : void
__
+background : SDL_Color
+camera : struct Camera
+font : TTF_Font *
+renderer : SDL_Renderer *
+viewport : SDL_Rect
}
class "Render::Camera" as C_0001442785335753325371
class C_0001442785335753325371 {
__
+h : int
+lerpSpeed : float
+offset : iPoint
+target : Entity *
+useInterpolation : bool
+w : int
+x : int
+y : int
}
class "List<SDL_Texture *>" as C_0000637289489184348717
class C_0000637289489184348717 {
__
}
class "Textures" as C_0000062309066684546728
class C_0000062309066684546728 {
+Textures() : void
+Textures(bool startEnabled) : void
+~Textures() : void
..
+Awake(pugi::xml_node & conf) : bool
+CleanUp() : bool
+GetSize(const SDL_Texture * texture, uint & width, uint & height) const : void
+Load(const char * path) : SDL_Texture *const
+LoadSurface(SDL_Surface * surface) : SDL_Texture *const
+Start() : bool
+UnLoad(SDL_Texture * texture) : bool
__
+textures : List<SDL_Texture *>
}
class "DynArray<VALUE>" as C_0000907383609713584339
class C_0000907383609713584339 {
__
}
class "DynArray<Point<int>>" as C_0000486774695139219173
class C_0000486774695139219173 {
__
}
class "PathFinding" as C_0000402803913299144321
class C_0000402803913299144321 {
+PathFinding() : void
+~PathFinding() : void
..
+CheckBoundaries(const iPoint & pos) const : bool
+CleanUp() : bool
+ClearLastPath() : void
+CreatePath(const iPoint & origin, const iPoint & destination) : int
+GetLastPath() const : const DynArray<iPoint> *
+GetTileAt(const iPoint & pos) const : uchar
+IsWalkable(const iPoint & pos) const : bool
+SetNavigationMap(uint w, uint h, uchar * data) : void
__
-height : uint
-lastPath : DynArray<iPoint>
-map : uchar *
-width : uint
}
class "PathNode" as C_0000084914526880388416
class C_0000084914526880388416 {
+PathNode() : void
+PathNode(int g, int h, const iPoint & pos, const PathNode * parent) : void
+PathNode(const PathNode & node) : void
..
+CalculateF(const iPoint & destination) : int
+FindWalkableAdjacents(PathList & list_to_fill) const : uint
+Score() const : int
__
+g : int
+h : int
+parent : const PathNode *
+pos : iPoint
}
class "List<PathNode>" as C_0002106540018289693824
class C_0002106540018289693824 {
__
}
class "PathList" as C_0000584669646728715860
class C_0000584669646728715860 {
+Find(const iPoint & point) const : ListItem<PathNode> *
+GetNodeLowestScore() const : ListItem<PathNode> *
__
+list : List<PathNode>
}
enum "MapOrientation" as C_0000945063531288299717
enum C_0000945063531288299717 {
ORTOGRAPHIC
ISOMETRIC
}
class "TileSet" as C_0001888192902778322135
class C_0001888192902778322135 {
+GetTileRect(int gid) const : SDL_Rect
__
+columns : int
+firstgid : int
+margin : int
+name : SString
+spacing : int
+texture : SDL_Texture *
+tileHeight : int
+tileWidth : int
+tilecount : int
}
class "Colliders" as C_0001925952947997360733
class C_0001925952947997360733 {
__
+height : int
+width : int
+x : int
+y : int
}
enum "MapTypes" as C_0000728776113442315031
enum C_0000728776113442315031 {
MAPTYPE_UNKNOWN
MAPTYPE_ORTHOGONAL
MAPTYPE_ISOMETRIC
MAPTYPE_STAGGERED
}
class "List<Property *>" as C_0000651842762579521762
class C_0000651842762579521762 {
__
}
class "Properties" as C_0000968185268933009379
class C_0000968185268933009379 {
+~Properties() : void
..
+GetProperty(const char * name) : Property *
__
+list : List<Property *>
}
class "Properties::Property" as C_0002216409084230692571
class C_0002216409084230692571 {
__
+name : SString
+value : bool
}
class "MapLayer" as C_0000698531687041229889
class C_0000698531687041229889 {
+MapLayer() : void
+~MapLayer() : void
..
+Get(int x, int y) const : uint
__
+data : uint *
+height : int
+id : int
+name : SString
+parallaxFactor : float
+properties : Properties
+width : int
}
class "List<TileSet *>" as C_0000869587935096431353
class C_0000869587935096431353 {
__
}
class "List<MapLayer *>" as C_0001600258763237826943
class C_0001600258763237826943 {
__
}
class "List<Animation *>" as C_0001810377391797459918
class C_0001810377391797459918 {
__
}
class "MapData" as C_0000122308650329407852
class C_0000122308650329407852 {
__
+animations : List<Animation *>
+height : int
+maplayers : List<MapLayer *>
+tileHeight : int
+tileWidth : int
+tilesets : List<TileSet *>
+type : MapTypes
+width : int
}
class "Map" as C_0000271077046487402302
class C_0000271077046487402302 {
+Map() : void
+Map(bool startEnabled) : void
+~Map() : void
..
+Awake(pugi::xml_node & conf) : bool
+CleanUp() : bool
+CreateNavigationMap(int & width, int & height, uchar ** buffer) const : void
+GetAnimByName(SString name) : Animation *
-GetTilesetFromTileId(int gid) const : TileSet *
+Load(SString mapFileName) : bool
-LoadAllLayers(pugi::xml_node mapNode) : bool
-LoadAnimation(pugi::xml_node node, TileSet * tileset) : bool
-LoadColliders(pugi::xml_node mapFile) : bool
-LoadLayer(pugi::xml_node & node, MapLayer * layer) : bool
-LoadMap(pugi::xml_node mapFile) : bool
-LoadProperties(pugi::xml_node & node, Properties & properties) : bool
-LoadTileSet(pugi::xml_node mapFile) : bool
+MapToWorld(int x, int y) const : iPoint
+Start() : bool
+Update(float dt) : bool
+WorldToMap(int x, int y) : iPoint
__
-blockedGid : int
-clippingMargin : const int
+mapData : MapData
-mapLoaded : bool
+name : SString
-navigationLayer : MapLayer *
+path : SString
+pathfinding : PathFinding *
}
enum "bodyType" as C_0000109050655063715563
enum C_0000109050655063715563 {
DYNAMIC
STATIC
KINEMATIC
}
enum "ColliderType" as C_0001149473946384216962
enum C_0001149473946384216962 {
PLAYER
FOOD
SCOREITEM
CHECKPOINT
ENEMY
BULLET
PLATFORM
DEATH
LIMITS
WIN
UNKNOWN
}
class "PhysBody" as C_0001598322189762997478
class C_0001598322189762997478 {
+PhysBody() : void
+~PhysBody() : void
..
+Contains(int x, int y) const : bool
+GetPosition(int & x, int & y) const : void
+GetRotation() const : float
+RayCast(int x1, int y1, int x2, int y2, float & normal_x, float & normal_y) const : int
__
+body : b2Body *
+ctype : ColliderType
+height : int
+listener : Entity *
+width : int
}
class "RaycastCallback" as C_0000222360111418837607
class C_0000222360111418837607 {
+ReportFixture(b2Fixture * fixture, const b2Vec2 & point, const b2Vec2 & normal, float32 fraction) : float32
__
+listener : Entity *
}
class "Raycast" as C_0002095470836691861688
class C_0002095470836691861688 {
__
+callback : b2RayCastCallback *
+rayEnd : b2Vec2
+rayStart : b2Vec2
}
class "DynArray<Raycast *>" as C_0002263564859619296918
class C_0002263564859619296918 {
__
}
class "DynArray<PhysBody *>" as C_0001657523939362645234
class C_0001657523939362645234 {
__
}
class "Physics" as C_0000196212426416469804
class C_0000196212426416469804 {
+Physics() : void
+Physics(bool startEnabled) : void
+~Physics() : void
..
+BeginContact(b2Contact * contact) : void
+CleanUp() : bool
+CreateChain(int x, int y, int * points, int size, bodyType type) : PhysBody *
+CreateCircle(int x, int y, int radious, bodyType type) : PhysBody *
+CreatePrismaticJoint(PhysBody * A, b2Vec2 anchorA, PhysBody * B, b2Vec2 anchorB, b2Vec2 axys, float maxHeight, bool collideConnected, bool enableLimit) : b2PrismaticJoint *
+CreateRaycast(Entity * listener, b2Vec2 rayStart, b2Vec2 rayEnd) : Raycast *
+CreateRectangle(int x, int y, int width, int height, bodyType type) : PhysBody *
+CreateRectangleSensor(int x, int y, int width, int height, bodyType type) : PhysBody *
+CreateRevoluteJoint(PhysBody * A, b2Vec2 anchorA, PhysBody * B, b2Vec2 anchorB, float lowerAngle, float upperAngle, float referenceAngle, bool collideConnected, bool enableLimit) : b2RevoluteJoint *
+CreateRope(int x, int y, int length, float segmentWidth = 0.1f, float segmentHeight = 0.25f) : PhysBody *
+CreateRope(b2Vec2 startPos, int length, float segmentWidth = 0.1f, float segmentHeight = 0.25f) : PhysBody *
+CreateRope(b2Vec2 startPos, b2Vec2 endPos, int length, float segmentWidth = 0.1f) : PhysBody *
+CreateWeldJoint(PhysBody * A, b2Vec2 anchorA, PhysBody * B, b2Vec2 anchorB, float angle, bool collideConnected, bool enableLimit) : b2WeldJoint *
+DestroyBody(PhysBody * body) : bool
+EndContact(b2Contact * contact) : void
+PostUpdate() : bool
+PreUpdate() : bool
+Start() : bool
+lookAt(b2Vec2 source, b2Vec2 target) : float
__
-bodiesToBeDeleted : DynArray<PhysBody *>
-ground : b2Body *
-mouseBody : b2Body *
-mouseJoint : b2MouseJoint *
-raycasts : DynArray<Raycast *>
-world : b2World *
}
class "Window" as C_0000831259330665478419
class C_0000831259330665478419 {
+Window() : void
+Window(bool startEnabled) : void
+~Window() : void
..
+Awake(pugi::xml_node & conf) : bool
+CleanUp() : bool
+GetScale() const : uint
+GetWindowSize(uint & width, uint & height) const : void
+SetTitle(const char * title) : void
__
-height : uint
-scale : uint
+screenSurface : SDL_Surface *
-title : SString
-width : uint
+window : SDL_Window *
}
enum "GuiControlType" as C_0001487599798461136185
enum C_0001487599798461136185 {
BUTTON
LABEL
TOGGLE
CHECKBOX
SLIDER
SLIDERBAR
COMBOBOX
DROPDOWNBOX
INPUTBOX
VALUEBOX
SPINNER
}
enum "GuiControlState" as C_0002099902107256783174
enum C_0002099902107256783174 {
DISABLED
NORMAL
FOCUSED
PRESSED
SELECTED
}
class "GuiControl" as C_0000050445004085505564
class C_0000050445004085505564 {
+GuiControl(GuiControlType type, uint32_t id) : void
+GuiControl(GuiControlType type, SDL_Rect bounds, const char * text) : void
..
+NotifyObserver() : void
+SetObserver(Module * module) : void
+SetTexture(SDL_Texture * tex) : void
+Update(float dt) : bool
__
+bounds : SDL_Rect
+color : SDL_Color
+id : uint32_t
+observer : Module *
+section : SDL_Rect
+state : GuiControlState
+text : SString
+texture : SDL_Texture *
+type : GuiControlType
}
class "GuiControlLabel" as C_0000474782448818159883
class C_0000474782448818159883 {
+GuiControlLabel(uint32_t id, SDL_Rect bounds, const char * text) : void
+~GuiControlLabel() : void
..
+Update(float dt) : bool
__
-drawBasic : bool
}
class "State<T>" as C_0001930924407059838364
class C_0001930924407059838364 {
__
}
class "DynArray<State<T> *>" as C_0000597996969227097891
class C_0000597996969227097891 {
__
}
class "StateMachine<T>" as C_0000640460711480564023
class C_0000640460711480564023 {
+StateMachine(T * owner) : void
+~StateMachine() : void
..
+AddState(State<T> * newState) : void
+ChangeState(SString stateName) : void
+CleanUp() : void
+FindState(SString stateName) : State<T> *
+GetCurrentState() : State<T>
+PostUpdate() : void
+PreUpdate() : void
+Update(float dt) : void
__
-currentState : State<T> *
+owner : T *
-states : DynArray<State<T> *>
}
class "Player" as C_0000461540543151714772
class C_0000461540543151714772 {
+Player() : void
+~Player() : void
..
+Awake() : bool
+CleanUp() : bool
+DrawImGui() : void
+EndCollision(PhysBody * physA, PhysBody * physB) : void
+LoadState(pugi::xml_node & node) : bool
+OnCollision(PhysBody * physA, PhysBody * physB) : void
+OnRaycastHit(b2Fixture * fixture, const b2Vec2 & point, const b2Vec2 & normal, float32 fraction) : void
+SaveState(pugi::xml_node & node) : bool
+Start() : bool
+Update(float dt) : bool
__
+maxSpeed : float
+moveForce : float
+pbody : PhysBody *
+startTimer : bool
+texture : SDL_Texture *
+texturePath : const char *
+timer : Timer
}
class "GuiControlButton" as C_0001216637959417277442
class C_0001216637959417277442 {
+GuiControlButton(uint32_t id, SDL_Rect bounds, const char * text) : void
+~GuiControlButton() : void
..
+Update(float dt) : bool
__
-canClick : bool
-click : unsigned int
-drawBasic : bool
-mouseX : int
-mouseY : int
}
class "Scene" as C_0000671957925397708354
class C_0000671957925397708354 {
+Scene() : void
+Scene(bool startEnabled) : void
+~Scene() : void
..
+Awake(pugi::xml_node & conf) : bool
+CleanUp() : bool
+OnGuiMouseClickEvent(GuiControl * control) : bool
+PostUpdate() : bool
+PreUpdate() : bool
+RenderGUI() : void
+Start() : bool
+Update(float dt) : bool
__
-exitPressed : bool
-gcBackToTitle : GuiControlButton *
-gcButton : GuiControlButton *
-gcExit : GuiControlButton *
-gcLives : GuiControlLabel *
-gcResume : GuiControlButton *
-gcScore : GuiControlLabel *
-gcSettings : GuiControlButton *
-gcTime : GuiControlLabel *
-img : SDL_Texture *
-parameters : pugi::xml_node
-paused : bool
+player : Player *
-playingTime : Timer *
-texH : uint
-texW : uint
-textPosX : float
-textPosY : float
+winCondition : bool
-windowH : uint
-windowW : uint
}
class "DebugUI" as C_0000033584946407397767
class C_0000033584946407397767 {
+DebugUI() : void
+DebugUI(bool startEnabled) : void
+~DebugUI() : void
..
+CleanUp() : bool
+PostUpdate() : bool
+PreUpdate() : bool
+Start() : bool
+Update(float dt) : bool
__
+PerformanceMetrics : bool
+entityManagerEntityList : bool
+entityManagerInfo : bool
+entityManagerSpawnEntity : bool
+renderInfo : bool
}
class "Audio" as C_0000080176057330027895
class C_0000080176057330027895 {
+Audio() : void
+Audio(bool startEnabled) : void
+~Audio() : void
..
+Awake(pugi::xml_node & conf) : bool
+CleanUp() : bool
+LoadFx(const char * path) : unsigned int
+PlayFx(unsigned int fx, int repeat = 0) : bool
+PlayMusic(const char * path, float fadeTime = 2.0f) : bool
__
-fx : List<Mix_Chunk *>
-music : _Mix_Music *
}
class "SDL_Rect" as C_0000464086220192730248
class C_0000464086220192730248 {
__
}
class "b2Vec2" as C_0000476602819495244440
class C_0000476602819495244440 {
__
}
class "b2Fixture" as C_0000544461946013335108
class C_0000544461946013335108 {
__
}
class "FinalScene" as C_0000618910672234346490
class C_0000618910672234346490 {
__
}
class "SDL_Surface" as C_0000948584786299023355
class C_0000948584786299023355 {
__
}
class "b2RevoluteJoint" as C_0000987702110317165097
class C_0000987702110317165097 {
__
}
class "b2World" as C_0001011800463052311028
class C_0001011800463052311028 {
__
}
class "GuiManager" as C_0001110570260817625659
class C_0001110570260817625659 {
+GuiManager() : void
+GuiManager(bool startEnabled) : void
+~GuiManager() : void
..
+CleanUp() : bool
+CreateGuiControl(GuiControlType type, int id, const char * text, SDL_Rect bounds, Module * observer, SDL_Rect sliderBounds = { 0,0,0,0 }) : GuiControl *
+RemoveGuiControl(GuiControl * entity) : void
+Start() : bool
+Update(float dt) : bool
__
+guiControlsList : List<GuiControl *>
+texture : SDL_Texture *
}
class "b2MouseJoint" as C_0001176604070200234956
class C_0001176604070200234956 {
__
}
class "FadeToBlack" as C_0001394286585550451861
class C_0001394286585550451861 {
+FadeToBlack(bool startEnabled) : void
+~FadeToBlack() : void
..
+Fade(Module * toDisable, Module * toEnable, float frames = 60) : bool
+PostUpdate() : bool
+Start() : bool
+Update(float dt) : bool
__
-currentStep : enum Fade_Step
-frameCount : uint32_t
-maxFadeFrames : uint32_t
-moduleToDisable : Module *
-moduleToEnable : Module *
-screenRect : SDL_Rect
}
class "MainMenu" as C_0001688197572598327637
class C_0001688197572598327637 {
+MainMenu() : void
+MainMenu(bool startEnabled) : void
+~MainMenu() : void
..
+Awake(pugi::xml_node & conf) : bool
+CleanUp() : bool
+OnGuiMouseClickEvent(GuiControl * control) : bool
+PostUpdate() : bool
+PreUpdate() : bool
+RenderGUI() : void
+Start() : bool
+Update(float dt) : bool
__
-exitButton : GuiControlButton *
-exitPressed : bool
-img : SDL_Texture *
-optionsButton : GuiControlButton *
-playButton : GuiControlButton *
-texH : uint
-texW : uint
-textPosX : float
-textPosY : float
-windowH : uint
-windowW : uint
}
class "b2PrismaticJoint" as C_0001702541894835453893
class C_0001702541894835453893 {
__
}
class "SDL_Texture" as C_0001797233368829674927
class C_0001797233368829674927 {
__
}
class "b2Body" as C_0001803944753519778416
class C_0001803944753519778416 {
__
}
class "b2Contact" as C_0001918264531149036746
class C_0001918264531149036746 {
__
}
class "Lighting" as C_0001968221896809986037
class C_0001968221896809986037 {
+Lighting() : void
+Lighting(bool startEnabled) : void
+~Lighting() : void
..
+AddLight(iPoint position, int radius, const SDL_Color & color) : Light *
+Awake(pugi::xml_node & conf) : bool
+CleanUp() : bool
+DrawImGui() : void
+PostUpdate() : bool
+PreUpdate() : bool
+SetAmbientLight(const SDL_Color & color) : void
+Start() : bool
+Update(float dt) : bool
__
-ambientLight : SDL_Color
-lights : List<Light *>
}
class "SDL_Window" as C_0001971672124340054951
class C_0001971672124340054951 {
__
}
class "b2WeldJoint" as C_0002273227546972973898
class C_0002273227546972973898 {
__
}
enum "FadeToBlack::Fade_Step" as C_0001746004960523009424
enum C_0001746004960523009424 {
NONE
TO_BLACK
FROM_BLACK
}
class "List<Mix_Chunk *>" as C_0001381674560894923306
class C_0001381674560894923306 {
__
}
class "List<GuiControl *>" as C_0001539431260296512967
class C_0001539431260296512967 {
__
}
class "Mix_Chunk" as C_0001884219141267400479
class C_0001884219141267400479 {
__
}
class "_Mix_Music" as C_0001959969298157097270
class C_0001959969298157097270 {
__
}
class "Light" as C_0000531801436009580077
class C_0000531801436009580077 {
+Draw() : void
__
+active : bool
+color : SDL_Color
+position : iPoint
+texture : SDL_Texture *
}
class "List<Light *>" as C_0000320570774864767259
class C_0000320570774864767259 {
__
}
C_0000399112451206826007 ..> C_0000050445004085505564
C_0000399112451206826007 o-- C_0002203485581356694267 : +name
C_0001973336118957464567 ..> C_0000385363721452268759
C_0001973336118957464567 --> C_0000924491435641011598 : -keyboard
C_0001973336118957464567 o-- C_0000924491435641011598 : -mouseButtons
C_0000399112451206826007 <|-- C_0001973336118957464567
C_0001700573609937743778 ..|> C_0001000489781057793444
C_0001058145269966182203 ..> C_0001598322189762997478
C_0001058145269966182203 ..> C_0000544461946013335108
C_0001058145269966182203 ..> C_0000476602819495244440
C_0001058145269966182203 o-- C_0002203485581356694267 : +name
C_0001058145269966182203 o-- C_0000040480378375424615 : +type
C_0001058145269966182203 o-- C_0000880475517060217217 : +state
C_0001058145269966182203 o-- C_0001700573609937743778 : +position
C_0000673652577393702412 ..> C_0001058145269966182203
C_0000673652577393702412 ..|> C_0001696772670596304948
C_0001001317298509836136 ..> C_0000040480378375424615
C_0001001317298509836136 ..> C_0001058145269966182203
C_0001001317298509836136 o-- C_0000673652577393702412 : +entities
C_0000399112451206826007 <|-- C_0001001317298509836136
C_0000466625331374099894 ..> C_0000399112451206826007
C_0000466625331374099894 ..|> C_0001696772670596304948
C_0002251334596585589981 ..> C_0000399112451206826007
C_0002251334596585589981 --> C_0000831259330665478419 : +win
C_0002251334596585589981 --> C_0001973336118957464567 : +input
C_0002251334596585589981 --> C_0001099816755252582957 : +render
C_0002251334596585589981 --> C_0000062309066684546728 : +tex
C_0002251334596585589981 --> C_0001968221896809986037 : +lighting
C_0002251334596585589981 --> C_0000080176057330027895 : +audio
C_0002251334596585589981 --> C_0001394286585550451861 : +fade
C_0002251334596585589981 --> C_0001688197572598327637 : +mainMenu
C_0002251334596585589981 --> C_0000671957925397708354 : +scene
C_0002251334596585589981 --> C_0000618910672234346490 : +finalScene
C_0002251334596585589981 --> C_0001001317298509836136 : +entityManager
C_0002251334596585589981 --> C_0000271077046487402302 : +map
C_0002251334596585589981 --> C_0000196212426416469804 : +physics
C_0002251334596585589981 --> C_0001110570260817625659 : +guiManager
C_0002251334596585589981 --> C_0000033584946407397767 : +debugUI
C_0002251334596585589981 o-- C_0002203485581356694267 : -gameTitle
C_0002251334596585589981 o-- C_0002203485581356694267 : -organization
C_0002251334596585589981 o-- C_0000466625331374099894 : -modules
C_0002251334596585589981 o-- C_0002067590222564760620 : -startupTime
C_0002251334596585589981 o-- C_0000380169775090805138 : -frameTime
C_0002251334596585589981 o-- C_0000380169775090805138 : -lastSecFrameTime
C_0001495296779634455327 o-- C_0002203485581356694267 : +name
C_0001495296779634455327 --> C_0001797233368829674927 : +texture
C_0001495296779634455327 o-- C_0000464086220192730248 : +frames
C_0001099816755252582957 ..> C_0001058145269966182203
C_0001099816755252582957 ..> C_0001700573609937743778
C_0001099816755252582957 ..> C_0001797233368829674927
C_0001099816755252582957 o-- C_0000464086220192730248 : +viewport
C_0000399112451206826007 <|-- C_0001099816755252582957
C_0001442785335753325371 --+ C_0001099816755252582957
C_0001442785335753325371 --> C_0001058145269966182203 : +target
C_0001442785335753325371 o-- C_0001700573609937743778 : +offset
C_0000637289489184348717 ..> C_0001797233368829674927
C_0000637289489184348717 ..|> C_0001696772670596304948
C_0000062309066684546728 ..> C_0001797233368829674927
C_0000062309066684546728 ..> C_0000948584786299023355
C_0000062309066684546728 o-- C_0000637289489184348717 : +textures
C_0000399112451206826007 <|-- C_0000062309066684546728
C_0000486774695139219173 ..> C_0001700573609937743778
C_0000486774695139219173 ..|> C_0000907383609713584339
C_0000402803913299144321 ..> C_0001700573609937743778
C_0000402803913299144321 o-- C_0000486774695139219173 : -lastPath
C_0000084914526880388416 ..> C_0000584669646728715860
C_0000084914526880388416 o-- C_0001700573609937743778 : +pos
C_0000084914526880388416 --> C_0000084914526880388416 : +parent
C_0002106540018289693824 ..> C_0000084914526880388416
C_0002106540018289693824 ..|> C_0001696772670596304948
C_0000584669646728715860 ..> C_0001700573609937743778
C_0000584669646728715860 ..> C_0000084914526880388416
C_0000584669646728715860 o-- C_0002106540018289693824 : +list
C_0001888192902778322135 ..> C_0000464086220192730248
C_0001888192902778322135 o-- C_0002203485581356694267 : +name
C_0001888192902778322135 --> C_0001797233368829674927 : +texture
C_0000651842762579521762 ..|> C_0001696772670596304948
C_0000968185268933009379 o-- C_0000651842762579521762 : +list
C_0002216409084230692571 --+ C_0000968185268933009379
C_0002216409084230692571 o-- C_0002203485581356694267 : +name
C_0000698531687041229889 o-- C_0002203485581356694267 : +name
C_0000698531687041229889 o-- C_0000968185268933009379 : +properties
C_0000869587935096431353 ..> C_0001888192902778322135
C_0000869587935096431353 ..|> C_0001696772670596304948
C_0001600258763237826943 ..> C_0000698531687041229889
C_0001600258763237826943 ..|> C_0001696772670596304948
C_0001810377391797459918 ..> C_0001495296779634455327
C_0001810377391797459918 ..|> C_0001696772670596304948
C_0000122308650329407852 o-- C_0000869587935096431353 : +tilesets
C_0000122308650329407852 o-- C_0000728776113442315031 : +type
C_0000122308650329407852 o-- C_0001600258763237826943 : +maplayers
C_0000122308650329407852 o-- C_0001810377391797459918 : +animations
C_0000271077046487402302 ..> C_0001700573609937743778
C_0000271077046487402302 ..> C_0001495296779634455327
C_0000271077046487402302 ..> C_0001888192902778322135
C_0000271077046487402302 ..> C_0000968185268933009379
C_0000271077046487402302 o-- C_0000122308650329407852 : +mapData
C_0000271077046487402302 o-- C_0002203485581356694267 : +name
C_0000271077046487402302 o-- C_0002203485581356694267 : +path
C_0000271077046487402302 --> C_0000402803913299144321 : +pathfinding
C_0000271077046487402302 --> C_0000698531687041229889 : -navigationLayer
C_0000399112451206826007 <|-- C_0000271077046487402302
C_0001598322189762997478 --> C_0001803944753519778416 : +body
C_0001598322189762997478 --> C_0001058145269966182203 : +listener
C_0001598322189762997478 o-- C_0001149473946384216962 : +ctype
C_0000222360111418837607 ..> C_0000544461946013335108
C_0000222360111418837607 ..> C_0000476602819495244440
C_0000222360111418837607 --> C_0001058145269966182203 : +listener
C_0002095470836691861688 o-- C_0000476602819495244440 : +rayStart
C_0002095470836691861688 o-- C_0000476602819495244440 : +rayEnd
C_0002263564859619296918 ..> C_0002095470836691861688
C_0002263564859619296918 ..|> C_0000907383609713584339
C_0001657523939362645234 ..> C_0001598322189762997478
C_0001657523939362645234 ..|> C_0000907383609713584339
C_0000196212426416469804 ..> C_0000109050655063715563
C_0000196212426416469804 ..> C_0001598322189762997478
C_0000196212426416469804 ..> C_0000476602819495244440
C_0000196212426416469804 ..> C_0000987702110317165097
C_0000196212426416469804 ..> C_0001702541894835453893
C_0000196212426416469804 ..> C_0002273227546972973898
C_0000196212426416469804 ..> C_0001058145269966182203
C_0000196212426416469804 ..> C_0002095470836691861688
C_0000196212426416469804 ..> C_0001918264531149036746
C_0000196212426416469804 --> C_0001011800463052311028 : -world
C_0000196212426416469804 --> C_0001803944753519778416 : -ground
C_0000196212426416469804 --> C_0001176604070200234956 : -mouseJoint
C_0000196212426416469804 --> C_0001803944753519778416 : -mouseBody
C_0000196212426416469804 o-- C_0002263564859619296918 : -raycasts
C_0000196212426416469804 o-- C_0001657523939362645234 : -bodiesToBeDeleted
C_0000399112451206826007 <|-- C_0000196212426416469804
C_0000831259330665478419 --> C_0001971672124340054951 : +window
C_0000831259330665478419 --> C_0000948584786299023355 : +screenSurface
C_0000831259330665478419 o-- C_0002203485581356694267 : -title
C_0000399112451206826007 <|-- C_0000831259330665478419
C_0000050445004085505564 o-- C_0001487599798461136185 : +type
C_0000050445004085505564 o-- C_0002099902107256783174 : +state
C_0000050445004085505564 o-- C_0002203485581356694267 : +text
C_0000050445004085505564 o-- C_0000464086220192730248 : +bounds
C_0000050445004085505564 --> C_0001797233368829674927 : +texture
C_0000050445004085505564 o-- C_0000464086220192730248 : +section
C_0000050445004085505564 --> C_0000399112451206826007 : +observer
C_0000474782448818159883 ..> C_0000464086220192730248
C_0000050445004085505564 <|-- C_0000474782448818159883
C_0000597996969227097891 ..> C_0001930924407059838364
C_0000597996969227097891 ..|> C_0000907383609713584339
C_0000640460711480564023 ..> C_0002203485581356694267
C_0000640460711480564023 --> C_0001930924407059838364 : -currentState
C_0000640460711480564023 o-- C_0000597996969227097891 : -states
C_0000461540543151714772 ..> C_0000544461946013335108
C_0000461540543151714772 ..> C_0000476602819495244440
C_0000461540543151714772 o-- C_0002067590222564760620 : +timer
C_0000461540543151714772 --> C_0001797233368829674927 : +texture
C_0000461540543151714772 --> C_0001598322189762997478 : +pbody
C_0001058145269966182203 <|-- C_0000461540543151714772
C_0001216637959417277442 ..> C_0000464086220192730248
C_0000050445004085505564 <|-- C_0001216637959417277442
C_0000671957925397708354 ..> C_0000050445004085505564
C_0000671957925397708354 --> C_0000461540543151714772 : +player
C_0000671957925397708354 --> C_0001797233368829674927 : -img
C_0000671957925397708354 --> C_0001216637959417277442 : -gcButton
C_0000671957925397708354 --> C_0000474782448818159883 : -gcScore
C_0000671957925397708354 --> C_0000474782448818159883 : -gcLives
C_0000671957925397708354 --> C_0000474782448818159883 : -gcTime
C_0000671957925397708354 --> C_0001216637959417277442 : -gcResume
C_0000671957925397708354 --> C_0001216637959417277442 : -gcSettings
C_0000671957925397708354 --> C_0001216637959417277442 : -gcBackToTitle
C_0000671957925397708354 --> C_0001216637959417277442 : -gcExit
C_0000671957925397708354 --> C_0002067590222564760620 : -playingTime
C_0000399112451206826007 <|-- C_0000671957925397708354
C_0000399112451206826007 <|-- C_0000033584946407397767
C_0000080176057330027895 --> C_0001959969298157097270 : -music
C_0000080176057330027895 o-- C_0001381674560894923306 : -fx
C_0000399112451206826007 <|-- C_0000080176057330027895
C_0001110570260817625659 ..> C_0001487599798461136185
C_0001110570260817625659 ..> C_0000464086220192730248
C_0001110570260817625659 ..> C_0000050445004085505564
C_0001110570260817625659 o-- C_0001539431260296512967 : +guiControlsList
C_0001110570260817625659 --> C_0001797233368829674927 : +texture
C_0000399112451206826007 <|-- C_0001110570260817625659
C_0001394286585550451861 o-- C_0000464086220192730248 : -screenRect
C_0001394286585550451861 --> C_0000399112451206826007 : -moduleToEnable
C_0001394286585550451861 --> C_0000399112451206826007 : -moduleToDisable
C_0000399112451206826007 <|-- C_0001394286585550451861
C_0001688197572598327637 ..> C_0000050445004085505564
C_0001688197572598327637 --> C_0001797233368829674927 : -img
C_0001688197572598327637 --> C_0001216637959417277442 : -playButton
C_0001688197572598327637 --> C_0001216637959417277442 : -optionsButton
C_0001688197572598327637 --> C_0001216637959417277442 : -exitButton
C_0000399112451206826007 <|-- C_0001688197572598327637
C_0001968221896809986037 ..> C_0001700573609937743778
C_0001968221896809986037 ..> C_0000531801436009580077
C_0001968221896809986037 o-- C_0000320570774864767259 : -lights
C_0000399112451206826007 <|-- C_0001968221896809986037
C_0001746004960523009424 --+ C_0001394286585550451861
C_0001381674560894923306 ..> C_0001884219141267400479
C_0001381674560894923306 ..|> C_0001696772670596304948
C_0001539431260296512967 ..> C_0000050445004085505564
C_0001539431260296512967 ..|> C_0001696772670596304948
C_0000531801436009580077 o-- C_0001700573609937743778 : +position
C_0000531801436009580077 --> C_0001797233368829674927 : +texture
C_0000320570774864767259 ..> C_0000531801436009580077
C_0000320570774864767259 ..|> C_0001696772670596304948

'Generated with clang-uml, version 0.5.1
'LLVM version clang version 17.0.6 (https://github.com/llvm/llvm-project.git 6009708b4367171ccdbf4b5905cb6a803753fe18)
@enduml
